<?xml version="1.0" encoding="utf-8"?>
<!-- Generator: Adobe Illustrator 23.1.1, SVG Export Plug-In . SVG Version: 6.00 Build 0)  -->
<svg version="1.1" id="Layer_1" xmlns="http://www.w3.org/2000/svg" xmlns:xlink="http://www.w3.org/1999/xlink" x="0px" y="0px"
	 viewBox="0 0 2021.4 622.2" style="enable-background:new 0 0 2021.4 622.2;" xml:space="preserve">
<style type="text/css">
	.st0{fill:#03E99E;}
	.st1{fill:#FFFFFF;}
	.st2{fill:#123040;}
</style>
<g>
	<path class="st0" d="M231.2,309.5L231.2,309.5c-3.9-3.9-3.9-10.2,0-14.1l155.6-155.6c3.9-3.9,10.2-3.9,14.1,0v0
		c3.9,3.9,3.9,10.2,0,14.1L245.4,309.5C241.5,313.4,235.1,313.4,231.2,309.5z"/>
	<path class="st0" d="M231.2,366L231.2,366c-3.9-3.9-3.9-10.2,0-14.1l141.4-141.4c3.9-3.9,10.2-3.9,14.1,0l0,0
		c3.9,3.9,3.9,10.2,0,14.1L245.4,366C241.5,369.9,235.1,369.9,231.2,366z"/>
	<path class="st0" d="M231.2,422.6L231.2,422.6c-3.9-3.9-3.9-10.2,0-14.1l113.1-113.1c3.9-3.9,10.2-3.9,14.1,0h0
		c3.9,3.9,3.9,10.2,0,14.1L245.4,422.6C241.5,426.5,235.1,426.5,231.2,422.6z"/>
	<path class="st0" d="M231.2,479.2L231.2,479.2c-3.9-3.9-3.9-10.2,0-14.1l70.7-70.7c3.9-3.9,10.2-3.9,14.1,0v0
		c3.9,3.9,3.9,10.2,0,14.1l-70.7,70.7C241.5,483.1,235.1,483.1,231.2,479.2z"/>
	<path class="st0" d="M174.6,309.5L174.6,309.5c-3.9-3.9-3.9-10.2,0-14.1l141.4-141.4c3.9-3.9,10.2-3.9,14.1,0l0,0
		c3.9,3.9,3.9,10.2,0,14.1L188.8,309.5C184.9,313.4,178.6,313.4,174.6,309.5z"/>
	<path class="st0" d="M118.1,309.5L118.1,309.5c-3.9-3.9-3.9-10.2,0-14.1l113.1-113.1c3.9-3.9,10.2-3.9,14.1,0l0,0
		c3.9,3.9,3.9,10.2,0,14.1L132.2,309.5C128.3,313.4,122,313.4,118.1,309.5z"/>
	<path class="st0" d="M61.5,309.5L61.5,309.5c-3.9-3.9-3.9-10.2,0-14.1l70.7-70.7c3.9-3.9,10.2-3.9,14.1,0l0,0
		c3.9,3.9,3.9,10.2,0,14.1l-70.7,70.7C71.7,313.4,65.4,313.4,61.5,309.5z"/>
	<path class="st0" d="M89.8,394.3L89.8,394.3c-3.9-3.9-3.9-10.2,0-14.1l42.4-42.4c3.9-3.9,10.2-3.9,14.1,0l0,0
		c3.9,3.9,3.9,10.2,0,14.1l-42.4,42.4C100,398.2,93.7,398.2,89.8,394.3z"/>
	<path class="st0" d="M89.8,450.9L89.8,450.9c-3.9-3.9-3.9-10.2,0-14.1l42.4-42.4c3.9-3.9,10.2-3.9,14.1,0l0,0
		c3.9,3.9,3.9,10.2,0,14.1l-42.4,42.4C100,454.8,93.7,454.8,89.8,450.9z"/>
	<path class="st0" d="M146.4,450.9L146.4,450.9c-3.9-3.9-3.9-10.2,0-14.1l42.4-42.4c3.9-3.9,10.2-3.9,14.1,0l0,0
		c3.9,3.9,3.9,10.2,0,14.1l-42.4,42.4C156.6,454.8,150.3,454.8,146.4,450.9z"/>
</g>
<g>
	<g>
		<path class="st1" d="M443.3,407.4l102.1-240.3h2.2l102.1,240.3h-42.5l-71.6-182.6l26.3-17.8l-82.4,200.3H443.3z M507.3,321.5h78.9
			l12.7,31.7H496.2L507.3,321.5z"/>
		<path class="st1" d="M681.6,160.2h35.5v247.3h-35.5V160.2z"/>
		<path class="st1" d="M832.5,474.3c-10.8,0-20.1-1.3-27.9-3.8c-7.8-2.5-14.7-5.9-20.8-10s-11.7-8.4-17-12.8l20.9-24.4
			c6.1,5.7,12.6,10.5,19.5,14.3c6.9,3.8,15.1,5.7,24.6,5.7c8.9,0,16.5-1.4,23-4.3c6.4-2.9,11.5-7,15.2-12.4
			c3.7-5.4,5.5-11.8,5.5-19.2v-33.3l2.2,6.7c-3.6,8.2-10.1,15.3-19.7,21.2s-21.3,8.9-35.5,8.9c-12.3,0-23.6-3.1-33.9-9.4
			c-10.4-6.2-18.6-14.7-24.7-25.5c-6.1-10.8-9.2-22.9-9.2-36.5c0-13.9,3.3-26.4,9.8-37.2c6.5-10.9,15.1-19.4,25.7-25.7
			c10.6-6.2,21.9-9.4,33.9-9.4c11.8,0,22.3,2.1,31.5,6.3c9.2,4.2,16.1,9.5,20.8,15.8l-1.9,5.1l3.8-21.2h32.7V408
			c0,12.5-3.3,23.7-10,33.8c-6.7,10-15.8,18-27.6,23.8C861.9,471.4,848.2,474.3,832.5,474.3z M790.7,338.6c0,8,1.8,15.3,5.5,21.9
			c3.7,6.6,8.8,11.7,15.2,15.5c6.4,3.8,13.7,5.7,21.7,5.7c7,0,13.3-1.2,19-3.5c5.7-2.3,10.6-5.6,14.6-9.8c4-4.2,7-9.2,8.9-14.9
			v-29.2c-1.9-5.7-4.9-10.6-9-14.7s-9-7.3-14.7-9.7c-5.7-2.3-11.9-3.5-18.7-3.5c-8,0-15.3,1.8-21.7,5.4c-6.4,3.6-11.5,8.6-15.2,14.9
			C792.5,323.1,790.7,330.4,790.7,338.6z"/>
		<path class="st1" d="M948.9,338.9c0-13.5,3.2-25.7,9.7-36.6c6.4-10.9,15.4-19.4,26.8-25.7c11.4-6.2,24.4-9.4,39-9.4
			c15,0,28.1,3.1,39.1,9.4c11.1,6.2,19.7,14.8,25.7,25.7c6,10.9,9,23.1,9,36.6c0,13.5-3,25.7-9,36.6c-6,10.9-14.6,19.5-25.8,25.8
			c-11.2,6.3-24.3,9.5-39.3,9.5c-14.6,0-27.5-2.9-38.8-8.7c-11.3-5.8-20.2-14.1-26.6-24.9C952.1,366.5,948.9,353.7,948.9,338.9z
			 M984.7,339.3c0,7.8,1.7,15,5.1,21.4c3.4,6.4,8,11.6,13.9,15.4c5.9,3.8,12.5,5.7,19.7,5.7c7.8,0,14.6-1.9,20.4-5.7
			c5.8-3.8,10.4-8.9,13.6-15.4c3.3-6.4,4.9-13.6,4.9-21.4c0-8-1.6-15.3-4.9-21.7c-3.3-6.4-7.8-11.6-13.6-15.4
			c-5.8-3.8-12.6-5.7-20.4-5.7c-7.4,0-14,2-19.8,5.9c-5.8,3.9-10.4,9-13.8,15.4C986.4,324,984.7,331.2,984.7,339.3z"/>
		<path class="st1" d="M1167.9,273.3l3.2,38l-1.3-5.4c3.6-8,8.7-14.9,15.4-20.6c6.7-5.7,13.5-10.1,20.6-13.3
			c7.1-3.2,12.8-4.8,17.3-4.8l-1.6,35.5c-10.1-0.8-19,1-26.5,5.4c-7.5,4.4-13.4,10.4-17.6,17.9c-4.2,7.5-6.3,15.4-6.3,23.6v57.7
			h-35.2V273.3H1167.9z"/>
		<path class="st1" d="M1257.9,225.1c0-5.5,2.2-10,6.5-13.6c4.3-3.6,9-5.4,14.1-5.4c5.1,0,9.6,1.8,13.6,5.4c4,3.6,6,8.1,6,13.6
			c0,5.5-2,10-6,13.5c-4,3.5-8.6,5.2-13.6,5.2c-5.1,0-9.8-1.8-14.1-5.4C1260.1,234.9,1257.9,230.4,1257.9,225.1z M1259.5,273.3h35.5
			v134.1h-35.5V273.3z"/>
		<path class="st1" d="M1384.1,410.3c-10.1,0-19.8-1.8-29-5.4c-9.2-3.6-16.9-8.9-23-15.8l14.9-20c5.9,5.7,11.8,9.9,17.6,12.5
			c5.8,2.6,11.4,4,16.6,4c4,0,7.7-0.5,10.9-1.4c3.3-1,5.9-2.5,7.9-4.6c2-2.1,3-5,3-8.6c0-4.2-1.5-7.6-4.4-10c-3-2.4-6.8-4.4-11.4-6
			c-4.7-1.6-9.6-3.1-14.9-4.6c-11.4-3.8-20-9.1-25.7-16c-5.7-6.9-8.6-14.8-8.6-23.9c0-7,1.8-13.7,5.4-20.1c3.6-6.4,9.1-11.8,16.5-16
			c7.4-4.2,16.7-6.3,27.9-6.3c10.1,0,19,1.2,26.5,3.5c7.5,2.3,14.5,6,21.1,11.1l-13.6,21.6c-3.8-3.8-8.3-6.7-13.5-8.7
			c-5.2-2-9.9-3.1-14.1-3.3c-3.8-0.2-7.2,0.3-10.1,1.4c-3,1.2-5.4,2.8-7.3,4.9c-1.9,2.1-2.9,4.5-2.9,7.3c0,4.2,1.5,7.6,4.6,10.1
			c3.1,2.5,7,4.5,11.9,6c4.9,1.5,9.7,3.1,14.6,4.8c6.5,1.9,12.3,4.5,17.3,7.9c5,3.4,8.9,7.5,11.9,12.2c3,4.8,4.4,10.6,4.4,17.6
			c0,8-2,15.6-6,22.7c-4,7.1-10,12.7-18.1,17C1406.5,408.2,1396.4,410.3,1384.1,410.3z"/>
		<path class="st1" d="M1510,273.3l2.9,27.3l-1-2.2c5.1-9.7,12-17.3,20.8-22.8c8.8-5.5,19-8.2,30.6-8.2c7.4,0,13.9,1.2,19.7,3.5
			c5.7,2.3,10.5,5.6,14.4,9.8c3.9,4.2,6.4,9.5,7.4,15.8l-1.6,0.6c5.5-9.1,12.6-16.3,21.2-21.7c8.7-5.4,17.9-8.1,27.6-8.1
			c13.1,0,23.6,3.8,31.4,11.3c7.8,7.5,11.8,17.2,12,29v99.9h-35.2v-86.2c-0.2-6.3-1.6-11.7-4.1-16c-2.5-4.3-7.3-6.7-14.3-7.1
			c-7.6,0-14.2,2.4-19.8,7.1c-5.6,4.8-9.9,10.9-12.8,18.4c-3,7.5-4.5,15.4-4.8,23.6v60.2h-35.5v-86.2c-0.2-6.3-1.7-11.7-4.4-16
			c-2.8-4.3-7.6-6.7-14.6-7.1c-7.4,0-13.8,2.4-19.3,7.1c-5.5,4.8-9.7,10.9-12.7,18.4c-3,7.5-4.4,15.4-4.4,23.6v60.2h-35.5V273.3
			H1510z"/>
		<path class="st1" d="M1742.6,225.1c0-5.5,2.2-10,6.5-13.6c4.3-3.6,9-5.4,14.1-5.4c5.1,0,9.6,1.8,13.6,5.4c4,3.6,6,8.1,6,13.6
			c0,5.5-2,10-6,13.5c-4,3.5-8.6,5.2-13.6,5.2c-5.1,0-9.8-1.8-14.1-5.4C1744.8,234.9,1742.6,230.4,1742.6,225.1z M1744.2,273.3h35.5
			v134.1h-35.5V273.3z"/>
		<path class="st1" d="M1939.5,395.1c-5.9,4.9-13.2,8.7-21.7,11.6c-8.6,2.9-17.2,4.3-25.8,4.3c-14.8,0-27.8-2.9-39-8.7
			c-11.2-5.8-19.9-13.9-26.2-24.4c-6.2-10.5-9.4-23-9.4-37.6s3.3-27.2,10-37.7c6.7-10.6,15.4-18.6,26.3-24.3
			c10.9-5.6,22.3-8.4,34.4-8.4c11.4,0,21.4,1.5,30.1,4.6c8.7,3.1,16.1,7.2,22.2,12.5l-17.4,23.1c-3.4-2.7-7.8-5.3-13.2-7.8
			c-5.4-2.4-11.6-3.6-18.5-3.6s-13.4,1.8-19.3,5.4c-5.9,3.6-10.6,8.5-13.9,14.7c-3.4,6.2-5.1,13.4-5.1,21.4c0,7.6,1.8,14.6,5.4,20.9
			c3.6,6.3,8.5,11.4,14.7,15.1c6.2,3.7,13.5,5.5,21.7,5.5c5.5,0,10.5-0.8,14.9-2.4c4.4-1.6,8.5-3.7,12-6.5L1939.5,395.1z"/>
	</g>
</g>
</svg>
